<svg height="512" viewBox="0 0 64 64" width="512" xmlns="http://www.w3.org/2000/svg" xmlns:xlink="http://www.w3.org/1999/xlink"><linearGradient id="New_Gradient_Swatch_3" gradientUnits="userSpaceOnUse" x1="32" x2="32" y1="65.887" y2="5.047"><stop offset="0" stop-color="#006df0"/><stop offset="1" stop-color="#00e7f0"/></linearGradient><linearGradient id="New_Gradient_Swatch_3-2" x1="46" x2="46" xlink:href="#New_Gradient_Swatch_3" y1="65.887" y2="5.047"/><linearGradient id="New_Gradient_Swatch_3-3" x1="60" x2="60" xlink:href="#New_Gradient_Swatch_3" y1="65.887" y2="5.047"/><linearGradient id="New_Gradient_Swatch_3-4" x1="39" x2="39" xlink:href="#New_Gradient_Swatch_3" y1="65.887" y2="5.047"/><linearGradient id="New_Gradient_Swatch_3-5" x1="53" x2="53" xlink:href="#New_Gradient_Swatch_3" y1="65.887" y2="5.047"/><linearGradient id="New_Gradient_Swatch_3-6" x1="18" x2="18" xlink:href="#New_Gradient_Swatch_3" y1="65.887" y2="5.047"/><linearGradient id="New_Gradient_Swatch_3-7" x1="4" x2="4" xlink:href="#New_Gradient_Swatch_3" y1="65.887" y2="5.047"/><linearGradient id="New_Gradient_Swatch_3-8" x1="25" x2="25" xlink:href="#New_Gradient_Swatch_3" y1="65.887" y2="5.047"/><linearGradient id="New_Gradient_Swatch_3-19" x1="11" x2="11" xlink:href="#New_Gradient_Swatch_3" y1="65.887" y2="5.047"/><g id="Security_crypto" data-name="Security crypto"><path d="m32 36a4 4 0 1 1 4-4 4 4 0 0 1 -4 4zm0-6a2 2 0 1 0 2 2 2 2 0 0 0 -2-2z" fill="url(#New_Gradient_Swatch_3)"/><path d="m46 36a4 4 0 1 1 4-4 4 4 0 0 1 -4 4zm0-6a2 2 0 1 0 2 2 2 2 0 0 0 -2-2z" fill="url(#New_Gradient_Swatch_3-2)"/><path d="m60 36a4 4 0 1 1 4-4 4 4 0 0 1 -4 4zm0-6a2 2 0 1 0 2 2 2 2 0 0 0 -2-2z" fill="url(#New_Gradient_Swatch_3-3)"/><path d="m38 29h2v6h-2z" fill="url(#New_Gradient_Swatch_3-4)"/><path d="m52 29h2v6h-2z" fill="url(#New_Gradient_Swatch_3-5)"/><path d="m18 36a4 4 0 1 1 4-4 4 4 0 0 1 -4 4zm0-6a2 2 0 1 0 2 2 2 2 0 0 0 -2-2z" fill="url(#New_Gradient_Swatch_3-6)"/><path d="m4 36a4 4 0 1 1 4-4 4 4 0 0 1 -4 4zm0-6a2 2 0 1 0 2 2 2 2 0 0 0 -2-2z" fill="url(#New_Gradient_Swatch_3-7)"/><path d="m24 29h2v6h-2z" fill="url(#New_Gradient_Swatch_3-8)"/><path d="m25 24a4 4 0 1 1 4-4 4 4 0 0 1 -4 4zm0-6a2 2 0 1 0 2 2 2 2 0 0 0 -2-2z" fill="url(#New_Gradient_Swatch_3-8)"/><path d="m39 24a4 4 0 1 1 4-4 4 4 0 0 1 -4 4zm0-6a2 2 0 1 0 2 2 2 2 0 0 0 -2-2z" fill="url(#New_Gradient_Swatch_3-4)"/><path d="m53 24a4 4 0 1 1 4-4 4 4 0 0 1 -4 4zm0-6a2 2 0 1 0 2 2 2 2 0 0 0 -2-2z" fill="url(#New_Gradient_Swatch_3-5)"/><path d="m31 17h2v6h-2z" fill="url(#New_Gradient_Swatch_3)"/><path d="m45 17h2v6h-2z" fill="url(#New_Gradient_Swatch_3-2)"/><path d="m18 12a4 4 0 1 1 4-4 4 4 0 0 1 -4 4zm0-6a2 2 0 1 0 2 2 2 2 0 0 0 -2-2z" fill="url(#New_Gradient_Swatch_3-6)"/><path d="m32 12a4 4 0 1 1 4-4 4 4 0 0 1 -4 4zm0-6a2 2 0 1 0 2 2 2 2 0 0 0 -2-2z" fill="url(#New_Gradient_Swatch_3)"/><path d="m46 12a4 4 0 1 1 4-4 4 4 0 0 1 -4 4zm0-6a2 2 0 1 0 2 2 2 2 0 0 0 -2-2z" fill="url(#New_Gradient_Swatch_3-2)"/><path d="m24 5h2v6h-2z" fill="url(#New_Gradient_Swatch_3-8)"/><path d="m38 5h2v6h-2z" fill="url(#New_Gradient_Swatch_3-4)"/><path d="m11 24a4 4 0 1 1 4-4 4 4 0 0 1 -4 4zm0-6a2 2 0 1 0 2 2 2 2 0 0 0 -2-2z" fill="url(#New_Gradient_Swatch_3-19)"/><path d="m17 17h2v6h-2z" fill="url(#New_Gradient_Swatch_3-6)"/><path d="m25 48a4 4 0 1 1 4-4 4 4 0 0 1 -4 4zm0-6a2 2 0 1 0 2 2 2 2 0 0 0 -2-2z" fill="url(#New_Gradient_Swatch_3-8)"/><path d="m39 48a4 4 0 1 1 4-4 4 4 0 0 1 -4 4zm0-6a2 2 0 1 0 2 2 2 2 0 0 0 -2-2z" fill="url(#New_Gradient_Swatch_3-4)"/><path d="m53 48a4 4 0 1 1 4-4 4 4 0 0 1 -4 4zm0-6a2 2 0 1 0 2 2 2 2 0 0 0 -2-2z" fill="url(#New_Gradient_Swatch_3-5)"/><path d="m31 41h2v6h-2z" fill="url(#New_Gradient_Swatch_3)"/><path d="m45 41h2v6h-2z" fill="url(#New_Gradient_Swatch_3-2)"/><path d="m18 60a4 4 0 1 1 4-4 4 4 0 0 1 -4 4zm0-6a2 2 0 1 0 2 2 2 2 0 0 0 -2-2z" fill="url(#New_Gradient_Swatch_3-6)"/><path d="m32 60a4 4 0 1 1 4-4 4 4 0 0 1 -4 4zm0-6a2 2 0 1 0 2 2 2 2 0 0 0 -2-2z" fill="url(#New_Gradient_Swatch_3)"/><path d="m46 60a4 4 0 1 1 4-4 4 4 0 0 1 -4 4zm0-6a2 2 0 1 0 2 2 2 2 0 0 0 -2-2z" fill="url(#New_Gradient_Swatch_3-2)"/><path d="m24 53h2v6h-2z" fill="url(#New_Gradient_Swatch_3-8)"/><path d="m38 53h2v6h-2z" fill="url(#New_Gradient_Swatch_3-4)"/><path d="m11 48a4 4 0 1 1 4-4 4 4 0 0 1 -4 4zm0-6a2 2 0 1 0 2 2 2 2 0 0 0 -2-2z" fill="url(#New_Gradient_Swatch_3-19)"/><path d="m17 41h2v6h-2z" fill="url(#New_Gradient_Swatch_3-6)"/><path d="m10 29h2v6h-2z" fill="url(#New_Gradient_Swatch_3-19)"/></g></svg>